<svg width="42" height="42" viewBox="0 0 42 42" fill="none" xmlns="http://www.w3.org/2000/svg">
<mask id="mask0_16_34" style="mask-type:alpha" maskUnits="userSpaceOnUse" x="0" y="0" width="42" height="42">
<rect x="0.405396" y="0.17263" width="41.1892" height="41.1892" fill="#D9D9D9"/>
</mask>
<g mask="url(#mask0_16_34)">
<path d="M34.3728 36.5062L23.1809 25.3212C22.3296 26.0226 21.3388 26.5726 20.2084 26.9714C19.078 27.3701 17.8697 27.5695 16.5837 27.5695C13.4296 27.5695 10.7589 26.4751 8.57157 24.2863C6.38425 22.0976 5.29059 19.4467 5.29059 16.3338C5.29059 13.2206 6.38496 10.5696 8.57371 8.38086C10.7627 6.19212 13.4185 5.09774 16.5408 5.09774C19.6635 5.09774 22.3145 6.19212 24.4938 8.38086C26.6731 10.5696 27.7627 13.222 27.7627 16.3381C27.7627 17.5884 27.5681 18.7757 27.1788 19.9001C26.7898 21.0242 26.2253 22.0585 25.4853 23.003L36.7094 34.173L34.3728 36.5062ZM16.5576 24.3194C18.7726 24.3194 20.6522 23.5408 22.1962 21.9836C23.7402 20.4264 24.5122 18.5432 24.5122 16.3338C24.5122 14.1242 23.7399 12.2408 22.1953 10.6836C20.6504 9.12642 18.7712 8.34783 16.5576 8.34783C14.3282 8.34783 12.4348 9.12642 10.8773 10.6836C9.31984 12.2408 8.5411 14.1242 8.5411 16.3338C8.5411 18.5432 9.31941 20.4264 10.876 21.9836C12.4329 23.5408 14.3268 24.3194 16.5576 24.3194Z" fill="white"/>
</g>
</svg>
